<svg xmlns="http://www.w3.org/2000/svg" viewBox="0 0 512 512"><!--! Font Awesome Free 6.4.0 by @fontawesome - https://fontawesome.com License - https://fontawesome.com/license/free (Icons: CC BY 4.0, Fonts: SIL OFL 1.1, Code: MIT License) Copyright 2023 Fonticons, Inc. --><path d="M0 96C0 60.7 28.7 32 64 32H448c35.3 0 64 28.7 64 64V416c0 35.3-28.7 64-64 64H64c-35.3 0-64-28.7-64-64V96zM48 288v64c0 8.8 7.2 16 16 16H80c8.8 0 16-7.2 16-16V288c0-8.8-7.2-16-16-16H64c-8.8 0-16 7.2-16 16zM432 272c-8.8 0-16 7.2-16 16v64c0 8.8 7.2 16 16 16h16c8.8 0 16-7.2 16-16V288c0-8.8-7.2-16-16-16H432zM48 128v64c0 8.8 7.2 16 16 16H80c8.8 0 16-7.2 16-16V128c0-8.8-7.2-16-16-16H64c-8.8 0-16 7.2-16 16zM432 112c-8.8 0-16 7.2-16 16v64c0 8.8 7.2 16 16 16h16c8.8 0 16-7.2 16-16V128c0-8.8-7.2-16-16-16H432zM160 112c-8.8 0-16 7.2-16 16V384c0 8.8 7.2 16 16 16H352c8.8 0 16-7.2 16-16V128c0-8.8-7.2-16-16-16H160z"/></svg>